Patient4_TMGait_0pt3_02_right_01_EMG.mot
version=1
nRows=20
nColumns=33
inDegrees=no
endheader
time	1LAddLong	2LGlutMax	3LGlutMed	4LIliopsoas	5LSemiMemb	6LBicFemLong	7LRecFem	8LVastMed	9LVastLat	10LGasMed	11LTibAnt	12lTibPost	13LPeroneusLong	14LSol	15LExtDigLong	16LFlexDigLong	17RAddLong	18RGlutMax	19RGlutMed	20RIliopsoas	21RSemiMemb	22RBicFemLong	23RRecFem	24RVastMed	25RVastLat	26RGasMed	27RTibAnt	28RTibPost	29RPeroneusLong	30RSol	31RExtDigLong	32RFlexDigLong
0.28	-0.019379	0.021057	-0.014801	0.012665	-0.028992	0.11459	0.20813	-0.011444	-0.076752	-0.1918	0.024719	0.001984	0.15533	-0.04425	0.07431	-0.028076	-0.00351	-0.036316	0.2449	-0.014496	0.036163	0.000916	0.048676	0.033722	0.013428	-0.001678	0.010986	0.001831	-0.11169	0.003204	-0.002899	-0.011597
0.281	-0.00885	0.034637	-0.074005	0.025177	-0.02594	0.24323	0.055695	-0.019684	0.029449	-0.033875	0.025024	0.007324	-0.66422	-0.067291	0.030212	-0.044861	0.020447	-0.063477	0.093689	-0.009003	0.03067	0.031281	0.031128	0.0737	0.033569	-0.00351	-0.86502	0	-0.11368	-0.061951	-0.004272	-0.011597
0.282	-0.007477	0.10727	0.11963	-0.017395	0.002289	0.1973	-0.040741	-0.00412	0.098419	-0.088654	0.023193	0.12009	-0.5246	-0.1152	0.06546	0.033569	0.029449	-0.013428	0.34119	-0.048676	0.049438	0.009613	0.027161	0.10757	0.023956	-0.009155	-0.54962	-0.00412	-0.16983	-0.057068	-0.001678	-0.008545
0.283	0.003357	0.06134	0.042267	0.037079	0.024872	0.11749	-0.084076	-0.002289	0.095367	-0.1648	0.0383	-0.27542	-0.48553	0.39673	0.14175	-0.005035	0.061798	0.009155	0.67215	-0.031738	0.06134	0.028839	0.045776	0.096436	0.037537	-0.002136	-0.14221	0.002289	-0.028839	-0.052185	-0.007019	-0.009918
0.284	0.005798	0.050049	0.13367	0.031281	0.038757	-0.066223	-0.21301	-0.018311	0.079193	-0.09613	0.037384	-0.041046	-0.51743	0.86121	0.079651	-0.16266	0.057373	0.057983	0.45578	0.018158	0.055389	-0.006256	0.084381	0.049744	0.032349	0.003204	-0.086517	0.00061	0.22415	-0.039368	-0.00351	-0.007477
0.285	0.009613	0.011292	0.12833	0.037079	0.030975	-0.37659	-0.33783	-0.002899	0.030975	0.022583	-0.026093	0.2803	-0.10132	1.0147	-0.039063	0.03006	0.054016	0.069885	0.077515	-0.007935	0.053864	-0.035095	0.035553	0.048981	0.024567	0.000153	0.012817	-0.000305	0.17227	0.02594	-0.004883	-0.002441
0.286	0.010681	-0.037079	0.12726	-0.019226	0.003357	-0.27969	-0.33371	0.030212	0.1149	0.19562	-0.056305	0.077362	0.16602	0.87585	-0.059509	0.13382	0.071106	0.046539	0.42465	-0.13718	0.038452	-0.058136	0.073395	0.022583	0.007629	-0.012817	0.039063	-0.001068	-0.001068	0.079041	-0.003815	-0.007629
0.287	-0.001526	-0.11139	0.006866	-0.020447	-0.026703	0.008698	-0.21286	0.049896	0.24002	0.25742	-0.007629	-0.030365	0.076447	0.86533	-0.081177	0.011139	0.066223	-0.032501	0.33249	-0.1532	0.009308	-0.076294	0.088806	-0.038147	0.000153	-0.023346	0.12405	-0.001526	-0.1973	0.097504	-0.003967	-0.011444
0.288	-0.012665	-0.10132	-0.043182	-0.003204	-0.018158	0.14435	-0.045471	0.032043	0.36392	0.18707	0.013733	-0.036011	0.062256	-0.54474	-0.12558	0.38757	0.013885	-0.00061	0.13412	-0.051422	-0.003357	-0.053101	0.10117	-0.050201	0.004578	-0.016785	0.16205	0.001831	-0.22812	0.14069	-0.003662	-0.011597
0.289	-0.006866	-0.074921	-0.001068	0.003662	-0.009918	0.054016	-0.11444	0.016632	0.35721	0.10315	0.005951	0.002747	0.11505	-1.1781	-0.10254	0.21454	0.033264	-0.010834	0.059967	0.084076	-0.012207	-0.055542	0.11459	-0.11185	-0.005798	-0.006409	-0.18494	0.000305	-0.10788	0.008545	-0.000305	-0.007019
0.29	-0.01236	-0.067596	-0.078583	0.022125	-0.007782	0.22949	-0.19943	-0.007172	0.37705	-0.022278	-0.005493	-0.031586	0.42099	-0.75378	-0.061798	-0.21072	0.099487	-0.009003	0.08606	0.10483	-0.00824	-0.039825	0.12634	-0.10346	0.000305	-0.007935	-0.29221	-0.000305	-0.004272	-0.053406	-0.002136	0.002747
0.291	-0.012512	-0.034027	-0.17578	0.017548	0.007019	-0.21927	-0.32135	-0.0354	0.31891	-0.020447	0	-0.020142	0.1474	-0.25207	-0.015411	-0.17777	0.14725	-0.036011	0.26871	0.034485	0.003052	-0.01709	0.11322	-0.083923	-0.004883	-0.002289	-0.053864	-0.00061	0.050812	0.024719	0.000763	-0.00824
0.292	-0.023193	-0.014191	-0.1828	0.002594	0.027008	-0.48996	-0.041962	-0.044708	-0.14038	0.016174	-0.004272	-0.014496	-0.18723	0.15564	-0.011292	-0.058746	0.09079	-0.027313	0.37827	-0.085297	0.023499	0.00061	0.15411	-0.055847	0.007629	-0.001678	0.18494	-0.002441	0.059357	-0.096436	-0.002594	-0.001373
0.293	-0.029755	-0.012817	-0.16556	0.009766	0.010376	-0.31784	0.097046	-0.036469	-0.39917	0.05722	0.001221	-0.02655	-0.10315	-0.036469	-0.006561	0.037079	0.053101	-0.009918	0.32913	-0.24353	0.05661	0.031433	0.094604	-0.031891	0.019836	-0.002289	0.18784	-0.008698	-0.014343	-0.11414	-0.004883	-0.000458
0.294	-0.016174	0.033417	0.023499	0.006409	-0.010376	-0.15625	0.032501	-0.008545	-0.57663	0.048218	0.005798	-0.020142	0.023956	-0.021667	0.009155	0.049133	-0.002899	0.028992	0.46921	-0.28854	0.086365	0.034027	0.088501	0.02243	0.022278	-0.007172	0.13626	-0.004425	-0.11734	-0.000153	-0.001526	-0.011444
0.295	0.028839	0.014191	0.018768	0.020447	0.018616	-0.12512	-0.024261	0.023651	-0.36728	0.014038	0.001221	-0.025177	0.10819	-0.19867	-0.018311	0.032501	-0.058594	-0.00473	0.31876	-0.19623	0.10376	0.057526	0.071869	0.08316	0.009308	-0.007782	0.13428	-0.007324	-0.096283	-0.01709	-0.009155	-0.013123
0.296	0.018616	0.007019	0.12222	0.013733	0.031891	-0.11597	-0.037842	0.053101	-0.26947	0.023804	0.003204	0.016632	0.024414	-0.21774	-0.000305	0.03006	-0.11261	0.040741	0.011597	0.068817	0.087128	0.042725	0.050659	0.059967	0.009613	0.005646	-0.18173	-0.001526	0.011139	-0.20081	-0.003967	-0.007477
0.297	0.071869	-0.014496	0.028687	0.024109	0.056458	-0.063934	0.032806	0.036163	-0.21957	0.03006	0.01297	0.005798	-0.018158	-0.089111	-0.005646	0.024567	-0.15045	0.044708	0.18601	0.35446	0.072021	0.009155	0.056458	0.054626	-0.000763	0.010986	-0.56549	-0.003052	0.13687	-0.25299	-0.002136	-0.008087
0.298	0.03067	-0.021057	-0.042725	0.00946	0.032196	-0.005646	-0.005341	0.004272	-0.19684	0.28	0.011749	0.051422	-0.044708	-0.037079	-0.020142	0.028076	-0.11231	0.079956	0.17334	0.28671	0.046539	-0.004578	0.076752	-0.021667	-0.007782	0.009918	-0.57358	-0.003357	0.064392	-0.24963	-0.002594	-0.003662
0.299	0.039825	-0.10727	-0.021973	0.00473	0.009613	0.031891	-0.22797	-0.01709	-0.050354	0.34409	0.013885	0.11581	-0.032043	-0.062561	0.05249	0.10956	-0.076599	0.067291	-0.012665	0.15793	0.034027	-0.049591	0.043945	-0.011749	-0.015411	-0.002441	0.55817	-0.00473	-0.067291	-0.11704	-0.003662	-0.001526
